<mxfile host="app.diagrams.net" agent="Mozilla/5.0 (Windows NT 10.0; Win64; x64) AppleWebKit/537.36 (KHTML, like Gecko) Chrome/139.0.0.0 Safari/537.36" version="28.2.0">
  <diagram name="Страница — 1" id="2MRbz-ldVm6sQyRBmqo6">
    <mxGraphModel dx="1066" dy="703" grid="1" gridSize="10" guides="1" tooltips="1" connect="1" arrows="1" fold="1" page="1" pageScale="1" pageWidth="1169" pageHeight="827" math="0" shadow="0">
      <root>
        <mxCell id="0" />
        <mxCell id="1" parent="0" />
        <mxCell id="5gV6Mmuq19uFOGyt4GUH-14" value="" style="strokeWidth=1;shadow=0;dashed=0;align=center;html=1;shape=mxgraph.mockup.graphics.rrect;rSize=0;strokeColor=#999999;" vertex="1" parent="1">
          <mxGeometry x="40" y="30" width="960" height="610" as="geometry" />
        </mxCell>
        <mxCell id="5gV6Mmuq19uFOGyt4GUH-15" value="№" style="strokeColor=inherit;fillColor=inherit;gradientColor=inherit;strokeWidth=1;shadow=0;dashed=0;align=center;html=1;shape=mxgraph.mockup.graphics.rrect;rSize=0;fontColor=#666666;" vertex="1" parent="5gV6Mmuq19uFOGyt4GUH-14">
          <mxGeometry width="32" height="81.21028744326777" as="geometry" />
        </mxCell>
        <mxCell id="5gV6Mmuq19uFOGyt4GUH-16" value="Task" style="strokeColor=inherit;fillColor=inherit;gradientColor=inherit;strokeWidth=1;shadow=0;dashed=0;align=center;html=1;shape=mxgraph.mockup.graphics.rrect;rSize=0;fontColor=#666666;" vertex="1" parent="5gV6Mmuq19uFOGyt4GUH-14">
          <mxGeometry x="32" width="358" height="81.21028744326777" as="geometry" />
        </mxCell>
        <mxCell id="5gV6Mmuq19uFOGyt4GUH-18" value="" style="strokeColor=inherit;fillColor=inherit;gradientColor=inherit;strokeWidth=1;shadow=0;dashed=0;align=center;html=1;shape=mxgraph.mockup.graphics.rrect;rSize=0;fontColor=#666666;" vertex="1" parent="5gV6Mmuq19uFOGyt4GUH-14">
          <mxGeometry x="390" height="81.21028744326777" as="geometry" />
        </mxCell>
        <mxCell id="5gV6Mmuq19uFOGyt4GUH-19" value="" style="strokeColor=inherit;fillColor=inherit;gradientColor=inherit;strokeWidth=1;shadow=0;dashed=0;align=center;html=1;shape=mxgraph.mockup.graphics.rrect;rSize=0;fontColor=#666666;" vertex="1" parent="5gV6Mmuq19uFOGyt4GUH-14">
          <mxGeometry x="384" width="336" height="40.60514372163389" as="geometry" />
        </mxCell>
        <mxCell id="5gV6Mmuq19uFOGyt4GUH-20" value="" style="strokeColor=inherit;fillColor=inherit;gradientColor=inherit;strokeWidth=1;shadow=0;dashed=0;align=center;html=1;shape=mxgraph.mockup.graphics.rrect;rSize=0;fontColor=#666666;" vertex="1" parent="5gV6Mmuq19uFOGyt4GUH-14">
          <mxGeometry x="380" width="580" height="40.60514372163389" as="geometry" />
        </mxCell>
        <mxCell id="5gV6Mmuq19uFOGyt4GUH-21" value="" style="strokeColor=inherit;fillColor=inherit;gradientColor=inherit;strokeWidth=1;shadow=0;dashed=0;align=center;html=1;shape=mxgraph.mockup.graphics.rrect;rSize=0;;fontColor=#666666;" vertex="1" parent="5gV6Mmuq19uFOGyt4GUH-14">
          <mxGeometry x="380" y="40.60514372163389" width="100" height="40.60514372163389" as="geometry" />
        </mxCell>
        <mxCell id="5gV6Mmuq19uFOGyt4GUH-23" value="" style="strokeColor=inherit;fillColor=inherit;gradientColor=inherit;strokeWidth=1;shadow=0;dashed=0;align=center;html=1;shape=mxgraph.mockup.graphics.rrect;rSize=0;fontColor=#666666;" vertex="1" parent="5gV6Mmuq19uFOGyt4GUH-14">
          <mxGeometry x="480" y="40.60514372163389" width="100" height="40.60514372163389" as="geometry" />
        </mxCell>
        <mxCell id="5gV6Mmuq19uFOGyt4GUH-24" value="" style="strokeColor=inherit;fillColor=inherit;gradientColor=inherit;strokeWidth=1;shadow=0;dashed=0;align=center;html=1;shape=mxgraph.mockup.graphics.rrect;rSize=0;fontColor=#666666;" vertex="1" parent="5gV6Mmuq19uFOGyt4GUH-14">
          <mxGeometry x="580" y="40.60514372163389" width="10" height="40.60514372163389" as="geometry" />
        </mxCell>
        <mxCell id="5gV6Mmuq19uFOGyt4GUH-25" value="" style="strokeColor=inherit;fillColor=inherit;gradientColor=inherit;strokeWidth=1;shadow=0;dashed=0;align=center;html=1;shape=mxgraph.mockup.graphics.rrect;rSize=0;fontColor=#666666;" vertex="1" parent="5gV6Mmuq19uFOGyt4GUH-14">
          <mxGeometry x="576" y="40.60514372163389" width="104" height="40.60514372163389" as="geometry" />
        </mxCell>
        <mxCell id="5gV6Mmuq19uFOGyt4GUH-27" value="" style="strokeColor=inherit;fillColor=inherit;gradientColor=inherit;strokeWidth=1;shadow=0;dashed=0;align=center;html=1;shape=mxgraph.mockup.graphics.rrect;rSize=0;fontColor=#666666;" vertex="1" parent="5gV6Mmuq19uFOGyt4GUH-14">
          <mxGeometry x="672" y="40.60514372163389" width="98" height="40.60514372163389" as="geometry" />
        </mxCell>
        <mxCell id="5gV6Mmuq19uFOGyt4GUH-29" value="" style="strokeColor=inherit;fillColor=inherit;gradientColor=inherit;strokeWidth=1;shadow=0;dashed=0;align=center;html=1;shape=mxgraph.mockup.graphics.rrect;rSize=0;fontColor=#666666;" vertex="1" parent="5gV6Mmuq19uFOGyt4GUH-14">
          <mxGeometry x="770" y="40.60514372163389" height="40.60514372163389" as="geometry" />
        </mxCell>
        <mxCell id="5gV6Mmuq19uFOGyt4GUH-60" value="" style="edgeStyle=orthogonalEdgeStyle;rounded=0;orthogonalLoop=1;jettySize=auto;html=1;" edge="1" parent="5gV6Mmuq19uFOGyt4GUH-14" source="5gV6Mmuq19uFOGyt4GUH-30" target="5gV6Mmuq19uFOGyt4GUH-39">
          <mxGeometry relative="1" as="geometry" />
        </mxCell>
        <mxCell id="5gV6Mmuq19uFOGyt4GUH-30" value="" style="strokeColor=inherit;fillColor=inherit;gradientColor=inherit;strokeWidth=1;shadow=0;dashed=0;align=center;html=1;shape=mxgraph.mockup.graphics.rrect;rSize=0;fontColor=#666666;" vertex="1" parent="5gV6Mmuq19uFOGyt4GUH-14">
          <mxGeometry x="770" y="40.60514372163389" width="90" height="40.60514372163389" as="geometry" />
        </mxCell>
        <mxCell id="5gV6Mmuq19uFOGyt4GUH-31" value="" style="strokeColor=inherit;fillColor=inherit;gradientColor=inherit;strokeWidth=1;shadow=0;dashed=0;align=center;html=1;shape=mxgraph.mockup.graphics.rrect;rSize=0;fontColor=#666666;" vertex="1" parent="5gV6Mmuq19uFOGyt4GUH-14">
          <mxGeometry x="864" y="40.60514372163389" width="48" height="40.60514372163389" as="geometry" />
        </mxCell>
        <mxCell id="5gV6Mmuq19uFOGyt4GUH-32" value="" style="strokeColor=inherit;fillColor=inherit;gradientColor=inherit;strokeWidth=1;shadow=0;dashed=0;align=center;html=1;shape=mxgraph.mockup.graphics.rrect;rSize=0;fontColor=#666666;" vertex="1" parent="5gV6Mmuq19uFOGyt4GUH-14">
          <mxGeometry x="860" y="40.60514372163389" width="100" height="40.60514372163389" as="geometry" />
        </mxCell>
        <mxCell id="5gV6Mmuq19uFOGyt4GUH-34" value="" style="strokeColor=inherit;fillColor=inherit;gradientColor=inherit;strokeWidth=1;shadow=0;dashed=0;align=center;html=1;shape=mxgraph.mockup.graphics.rrect;rSize=0;fontColor=#666666;" vertex="1" parent="5gV6Mmuq19uFOGyt4GUH-14">
          <mxGeometry x="380" y="81.21028744326777" width="100" height="527.8668683812405" as="geometry" />
        </mxCell>
        <mxCell id="5gV6Mmuq19uFOGyt4GUH-35" value="" style="strokeColor=inherit;fillColor=inherit;gradientColor=inherit;strokeWidth=1;shadow=0;dashed=0;align=center;html=1;shape=mxgraph.mockup.graphics.rrect;rSize=0;fontColor=#666666;" vertex="1" parent="5gV6Mmuq19uFOGyt4GUH-14">
          <mxGeometry x="480" y="81.21028744326777" width="96" height="527.8668683812405" as="geometry" />
        </mxCell>
        <mxCell id="5gV6Mmuq19uFOGyt4GUH-36" value="" style="strokeColor=inherit;fillColor=inherit;gradientColor=inherit;strokeWidth=1;shadow=0;dashed=0;align=center;html=1;shape=mxgraph.mockup.graphics.rrect;rSize=0;fontColor=#666666;" vertex="1" parent="5gV6Mmuq19uFOGyt4GUH-14">
          <mxGeometry x="576" y="81.21028744326777" width="96" height="527.8668683812405" as="geometry" />
        </mxCell>
        <mxCell id="5gV6Mmuq19uFOGyt4GUH-37" value="" style="strokeColor=inherit;fillColor=inherit;gradientColor=inherit;strokeWidth=1;shadow=0;dashed=0;align=center;html=1;shape=mxgraph.mockup.graphics.rrect;rSize=0;fontColor=#666666;" vertex="1" parent="5gV6Mmuq19uFOGyt4GUH-14">
          <mxGeometry x="672" y="81.21028744326777" width="98" height="527.8668683812405" as="geometry" />
        </mxCell>
        <mxCell id="5gV6Mmuq19uFOGyt4GUH-38" value="" style="strokeColor=inherit;fillColor=inherit;gradientColor=inherit;strokeWidth=1;shadow=0;dashed=0;align=center;html=1;shape=mxgraph.mockup.graphics.rrect;rSize=0;fontColor=#666666;" vertex="1" parent="5gV6Mmuq19uFOGyt4GUH-14">
          <mxGeometry x="770" y="81.21028744326777" width="94" height="527.8668683812405" as="geometry" />
        </mxCell>
        <mxCell id="5gV6Mmuq19uFOGyt4GUH-39" value="" style="strokeColor=inherit;fillColor=inherit;gradientColor=inherit;strokeWidth=1;shadow=0;dashed=0;align=center;html=1;shape=mxgraph.mockup.graphics.rrect;rSize=0;fontColor=#666666;" vertex="1" parent="5gV6Mmuq19uFOGyt4GUH-14">
          <mxGeometry x="860" y="81.21028744326777" width="100" height="527.8668683812405" as="geometry" />
        </mxCell>
        <mxCell id="5gV6Mmuq19uFOGyt4GUH-40" value="1" style="strokeWidth=1;shadow=0;dashed=0;align=center;html=1;shape=mxgraph.mockup.graphics.anchor;fontColor=#666666;" vertex="1" parent="5gV6Mmuq19uFOGyt4GUH-14">
          <mxGeometry y="81.21028744326777" width="32" height="40.60514372163389" as="geometry" />
        </mxCell>
        <mxCell id="5gV6Mmuq19uFOGyt4GUH-41" value="Договор" style="strokeWidth=1;shadow=0;dashed=0;align=left;html=1;shape=mxgraph.mockup.graphics.anchor;fontColor=#666666;" vertex="1" parent="5gV6Mmuq19uFOGyt4GUH-14">
          <mxGeometry x="30" y="81.21028744326777" width="70" height="41.52798789712556" as="geometry" />
        </mxCell>
        <mxCell id="5gV6Mmuq19uFOGyt4GUH-44" value="2" style="strokeWidth=1;shadow=0;dashed=0;align=center;html=1;shape=mxgraph.mockup.graphics.anchor;fontColor=#666666;" vertex="1" parent="5gV6Mmuq19uFOGyt4GUH-14">
          <mxGeometry y="109.99543116490165" width="32" height="40.60514372163389" as="geometry" />
        </mxCell>
        <mxCell id="5gV6Mmuq19uFOGyt4GUH-45" value="Концепцтуальные решения" style="strokeWidth=1;shadow=0;dashed=0;align=left;html=1;shape=mxgraph.mockup.graphics.anchor;fontColor=#666666;" vertex="1" parent="5gV6Mmuq19uFOGyt4GUH-14">
          <mxGeometry x="30" y="110" width="180" height="41.52798789712556" as="geometry" />
        </mxCell>
        <mxCell id="5gV6Mmuq19uFOGyt4GUH-46" value="" style="strokeWidth=1;shadow=0;dashed=0;align=center;html=1;shape=mxgraph.mockup.graphics.anchor;fontColor=#666666;" vertex="1" parent="5gV6Mmuq19uFOGyt4GUH-14">
          <mxGeometry x="96" y="121.81543116490165" width="208" height="40.60514372163389" as="geometry" />
        </mxCell>
        <mxCell id="5gV6Mmuq19uFOGyt4GUH-48" value="3" style="strokeWidth=1;shadow=0;dashed=0;align=center;html=1;shape=mxgraph.mockup.graphics.anchor;fontColor=#666666;" vertex="1" parent="5gV6Mmuq19uFOGyt4GUH-14">
          <mxGeometry y="138.46057488653554" width="32" height="40.60514372163389" as="geometry" />
        </mxCell>
        <mxCell id="5gV6Mmuq19uFOGyt4GUH-49" value="Эскиз функциональных зон" style="strokeWidth=1;shadow=0;dashed=0;align=left;html=1;shape=mxgraph.mockup.graphics.anchor;fontColor=#666666;" vertex="1" parent="5gV6Mmuq19uFOGyt4GUH-14">
          <mxGeometry x="30" y="138" width="180" height="41.52798789712556" as="geometry" />
        </mxCell>
        <mxCell id="5gV6Mmuq19uFOGyt4GUH-50" value="" style="strokeWidth=1;shadow=0;dashed=0;align=center;html=1;shape=mxgraph.mockup.graphics.anchor;fontColor=#666666;" vertex="1" parent="5gV6Mmuq19uFOGyt4GUH-14">
          <mxGeometry x="96" y="162.42057488653555" width="208" height="40.60514372163389" as="geometry" />
        </mxCell>
        <mxCell id="5gV6Mmuq19uFOGyt4GUH-52" value="4" style="strokeWidth=1;shadow=0;dashed=0;align=center;html=1;shape=mxgraph.mockup.graphics.anchor;fontColor=#666666;" vertex="1" parent="5gV6Mmuq19uFOGyt4GUH-14">
          <mxGeometry y="166.92571860816943" width="32" height="40.60514372163389" as="geometry" />
        </mxCell>
        <mxCell id="5gV6Mmuq19uFOGyt4GUH-53" value="Подбор и расстановка оборудования" style="strokeWidth=1;shadow=0;dashed=0;align=left;html=1;shape=mxgraph.mockup.graphics.anchor;fontColor=#666666;" vertex="1" parent="5gV6Mmuq19uFOGyt4GUH-14">
          <mxGeometry x="30" y="166" width="230" height="41.52798789712556" as="geometry" />
        </mxCell>
        <mxCell id="5gV6Mmuq19uFOGyt4GUH-56" value="" style="strokeWidth=1;shadow=0;dashed=0;align=center;html=1;shape=mxgraph.mockup.graphics.rrect;rSize=0;strokeColor=none;fillColor=#999999;" vertex="1" parent="5gV6Mmuq19uFOGyt4GUH-14">
          <mxGeometry x="400" y="91.36157337367624" width="130" height="20.302571860816943" as="geometry" />
        </mxCell>
        <mxCell id="5gV6Mmuq19uFOGyt4GUH-61" value="Дизайн проект" style="strokeWidth=1;shadow=0;dashed=0;align=left;html=1;shape=mxgraph.mockup.graphics.anchor;fontColor=#666666;" vertex="1" parent="5gV6Mmuq19uFOGyt4GUH-14">
          <mxGeometry x="30" y="195" width="100" height="41.52798789712556" as="geometry" />
        </mxCell>
        <mxCell id="5gV6Mmuq19uFOGyt4GUH-63" value="Заказ оборудования" style="strokeWidth=1;shadow=0;dashed=0;align=left;html=1;shape=mxgraph.mockup.graphics.anchor;fontColor=#666666;" vertex="1" parent="5gV6Mmuq19uFOGyt4GUH-14">
          <mxGeometry x="30" y="223" width="140" height="41.52798789712556" as="geometry" />
        </mxCell>
        <mxCell id="5gV6Mmuq19uFOGyt4GUH-64" value="Проектные работы" style="strokeWidth=1;shadow=0;dashed=0;align=left;html=1;shape=mxgraph.mockup.graphics.anchor;fontColor=#666666;" vertex="1" parent="5gV6Mmuq19uFOGyt4GUH-14">
          <mxGeometry x="30" y="251" width="130" height="41.52798789712556" as="geometry" />
        </mxCell>
        <mxCell id="5gV6Mmuq19uFOGyt4GUH-109" value="Ремонтные работы и монтаж инженерных сетей" style="strokeWidth=1;shadow=0;dashed=0;align=left;html=1;shape=mxgraph.mockup.graphics.anchor;fontColor=#666666;" vertex="1" parent="5gV6Mmuq19uFOGyt4GUH-14">
          <mxGeometry x="30" y="280" width="290" height="41.52798789712556" as="geometry" />
        </mxCell>
        <mxCell id="5gV6Mmuq19uFOGyt4GUH-110" value="Поставка и монтаж оборудования" style="strokeWidth=1;shadow=0;dashed=0;align=left;html=1;shape=mxgraph.mockup.graphics.anchor;fontColor=#666666;" vertex="1" parent="5gV6Mmuq19uFOGyt4GUH-14">
          <mxGeometry x="30" y="308" width="210" height="41.52798789712556" as="geometry" />
        </mxCell>
        <mxCell id="5gV6Mmuq19uFOGyt4GUH-111" value="Заупка ИТ оборудования" style="strokeWidth=1;shadow=0;dashed=0;align=left;html=1;shape=mxgraph.mockup.graphics.anchor;fontColor=#666666;" vertex="1" parent="5gV6Mmuq19uFOGyt4GUH-14">
          <mxGeometry x="30" y="336" width="160" height="41.52798789712556" as="geometry" />
        </mxCell>
        <mxCell id="5gV6Mmuq19uFOGyt4GUH-112" value="Монтаж ИТ оборудования" style="strokeWidth=1;shadow=0;dashed=0;align=left;html=1;shape=mxgraph.mockup.graphics.anchor;fontColor=#666666;" vertex="1" parent="5gV6Mmuq19uFOGyt4GUH-14">
          <mxGeometry x="30" y="365" width="170" height="41.52798789712556" as="geometry" />
        </mxCell>
        <mxCell id="5gV6Mmuq19uFOGyt4GUH-113" value="Заказ и монтаж мебели" style="strokeWidth=1;shadow=0;dashed=0;align=left;html=1;shape=mxgraph.mockup.graphics.anchor;fontColor=#666666;" vertex="1" parent="5gV6Mmuq19uFOGyt4GUH-14">
          <mxGeometry x="30" y="394" width="64" height="40.60514372163389" as="geometry" />
        </mxCell>
        <mxCell id="5gV6Mmuq19uFOGyt4GUH-114" value="Рекламная вывеска и поверхности" style="strokeWidth=1;shadow=0;dashed=0;align=left;html=1;shape=mxgraph.mockup.graphics.anchor;fontColor=#666666;" vertex="1" parent="5gV6Mmuq19uFOGyt4GUH-14">
          <mxGeometry x="30" y="421" width="220" height="41.52798789712556" as="geometry" />
        </mxCell>
        <mxCell id="5gV6Mmuq19uFOGyt4GUH-115" value="Подготовка клуба к открытию" style="strokeWidth=1;shadow=0;dashed=0;align=left;html=1;shape=mxgraph.mockup.graphics.anchor;fontColor=#666666;" vertex="1" parent="5gV6Mmuq19uFOGyt4GUH-14">
          <mxGeometry x="30" y="542" width="64" height="28.04597701149425" as="geometry" />
        </mxCell>
        <mxCell id="5gV6Mmuq19uFOGyt4GUH-116" value="Подготовка пакета документов для работы Клуба" style="strokeWidth=1;shadow=0;dashed=0;align=left;html=1;shape=mxgraph.mockup.graphics.anchor;fontColor=#666666;" vertex="1" parent="5gV6Mmuq19uFOGyt4GUH-14">
          <mxGeometry x="30" y="457" width="64" height="28.04597701149425" as="geometry" />
        </mxCell>
        <mxCell id="5gV6Mmuq19uFOGyt4GUH-117" value="Подбор&amp;nbsp; и обучение персноала" style="strokeWidth=1;shadow=0;dashed=0;align=left;html=1;shape=mxgraph.mockup.graphics.anchor;fontColor=#666666;" vertex="1" parent="5gV6Mmuq19uFOGyt4GUH-14">
          <mxGeometry x="30" y="485" width="64" height="28.04597701149425" as="geometry" />
        </mxCell>
        <mxCell id="5gV6Mmuq19uFOGyt4GUH-118" value="Маркетинговые мероприятия" style="strokeWidth=1;shadow=0;dashed=0;align=left;html=1;shape=mxgraph.mockup.graphics.anchor;fontColor=#666666;" vertex="1" parent="5gV6Mmuq19uFOGyt4GUH-14">
          <mxGeometry x="30" y="513" width="64" height="28.04597701149425" as="geometry" />
        </mxCell>
        <mxCell id="5gV6Mmuq19uFOGyt4GUH-119" value="Маркетинговые мероприятия" style="strokeWidth=1;shadow=0;dashed=0;align=left;html=1;shape=mxgraph.mockup.graphics.anchor;fontColor=#666666;" vertex="1" parent="5gV6Mmuq19uFOGyt4GUH-14">
          <mxGeometry x="30" y="570" width="64" height="28.04597701149425" as="geometry" />
        </mxCell>
        <mxCell id="5gV6Mmuq19uFOGyt4GUH-120" value="5" style="strokeWidth=1;shadow=0;dashed=0;align=center;html=1;shape=mxgraph.mockup.graphics.anchor;fontColor=#666666;" vertex="1" parent="5gV6Mmuq19uFOGyt4GUH-14">
          <mxGeometry y="195" width="32" height="40.60514372163389" as="geometry" />
        </mxCell>
        <mxCell id="5gV6Mmuq19uFOGyt4GUH-122" value="6" style="strokeWidth=1;shadow=0;dashed=0;align=center;html=1;shape=mxgraph.mockup.graphics.anchor;fontColor=#666666;" vertex="1" parent="5gV6Mmuq19uFOGyt4GUH-14">
          <mxGeometry y="223.92" width="32" height="40.60514372163389" as="geometry" />
        </mxCell>
        <mxCell id="5gV6Mmuq19uFOGyt4GUH-123" value="7" style="strokeWidth=1;shadow=0;dashed=0;align=center;html=1;shape=mxgraph.mockup.graphics.anchor;fontColor=#666666;" vertex="1" parent="5gV6Mmuq19uFOGyt4GUH-14">
          <mxGeometry y="251.45999999999998" width="32" height="40.60514372163389" as="geometry" />
        </mxCell>
        <mxCell id="5gV6Mmuq19uFOGyt4GUH-124" value="8" style="strokeWidth=1;shadow=0;dashed=0;align=center;html=1;shape=mxgraph.mockup.graphics.anchor;fontColor=#666666;" vertex="1" parent="5gV6Mmuq19uFOGyt4GUH-14">
          <mxGeometry y="280" width="32" height="40.60514372163389" as="geometry" />
        </mxCell>
        <mxCell id="5gV6Mmuq19uFOGyt4GUH-125" value="9" style="strokeWidth=1;shadow=0;dashed=0;align=center;html=1;shape=mxgraph.mockup.graphics.anchor;fontColor=#666666;" vertex="1" parent="5gV6Mmuq19uFOGyt4GUH-14">
          <mxGeometry y="308.92" width="32" height="40.60514372163389" as="geometry" />
        </mxCell>
        <mxCell id="5gV6Mmuq19uFOGyt4GUH-126" value="10" style="strokeWidth=1;shadow=0;dashed=0;align=center;html=1;shape=mxgraph.mockup.graphics.anchor;fontColor=#666666;" vertex="1" parent="5gV6Mmuq19uFOGyt4GUH-14">
          <mxGeometry y="336.92" width="32" height="40.60514372163389" as="geometry" />
        </mxCell>
        <mxCell id="5gV6Mmuq19uFOGyt4GUH-127" value="11" style="strokeWidth=1;shadow=0;dashed=0;align=center;html=1;shape=mxgraph.mockup.graphics.anchor;fontColor=#666666;" vertex="1" parent="5gV6Mmuq19uFOGyt4GUH-14">
          <mxGeometry y="365" width="32" height="40.60514372163389" as="geometry" />
        </mxCell>
        <mxCell id="5gV6Mmuq19uFOGyt4GUH-128" value="12" style="strokeWidth=1;shadow=0;dashed=0;align=center;html=1;shape=mxgraph.mockup.graphics.anchor;fontColor=#666666;" vertex="1" parent="5gV6Mmuq19uFOGyt4GUH-14">
          <mxGeometry y="394" width="32" height="40.60514372163389" as="geometry" />
        </mxCell>
        <mxCell id="5gV6Mmuq19uFOGyt4GUH-129" value="13" style="strokeWidth=1;shadow=0;dashed=0;align=center;html=1;shape=mxgraph.mockup.graphics.anchor;fontColor=#666666;" vertex="1" parent="5gV6Mmuq19uFOGyt4GUH-14">
          <mxGeometry y="421" width="32" height="40.60514372163389" as="geometry" />
        </mxCell>
        <mxCell id="5gV6Mmuq19uFOGyt4GUH-130" value="14" style="strokeWidth=1;shadow=0;dashed=0;align=center;html=1;shape=mxgraph.mockup.graphics.anchor;fontColor=#666666;" vertex="1" parent="5gV6Mmuq19uFOGyt4GUH-14">
          <mxGeometry y="450.72" width="32" height="40.60514372163389" as="geometry" />
        </mxCell>
        <mxCell id="5gV6Mmuq19uFOGyt4GUH-131" value="15" style="strokeWidth=1;shadow=0;dashed=0;align=center;html=1;shape=mxgraph.mockup.graphics.anchor;fontColor=#666666;" vertex="1" parent="5gV6Mmuq19uFOGyt4GUH-14">
          <mxGeometry y="478.72" width="32" height="40.60514372163389" as="geometry" />
        </mxCell>
        <mxCell id="5gV6Mmuq19uFOGyt4GUH-132" value="16" style="strokeWidth=1;shadow=0;dashed=0;align=center;html=1;shape=mxgraph.mockup.graphics.anchor;fontColor=#666666;" vertex="1" parent="5gV6Mmuq19uFOGyt4GUH-14">
          <mxGeometry y="506.72" width="32" height="40.60514372163389" as="geometry" />
        </mxCell>
        <mxCell id="5gV6Mmuq19uFOGyt4GUH-133" value="17" style="strokeWidth=1;shadow=0;dashed=0;align=center;html=1;shape=mxgraph.mockup.graphics.anchor;fontColor=#666666;" vertex="1" parent="5gV6Mmuq19uFOGyt4GUH-14">
          <mxGeometry y="535.72" width="32" height="40.60514372163389" as="geometry" />
        </mxCell>
        <mxCell id="5gV6Mmuq19uFOGyt4GUH-134" value="18" style="strokeWidth=1;shadow=0;dashed=0;align=center;html=1;shape=mxgraph.mockup.graphics.anchor;fontColor=#666666;" vertex="1" parent="5gV6Mmuq19uFOGyt4GUH-14">
          <mxGeometry y="563.72" width="32" height="40.60514372163389" as="geometry" />
        </mxCell>
        <mxCell id="5gV6Mmuq19uFOGyt4GUH-135" value="" style="strokeColor=inherit;fillColor=inherit;gradientColor=inherit;strokeWidth=2;shadow=0;dashed=0;align=center;html=1;shape=mxgraph.mockup.graphics.rrect;rSize=0;fontColor=#666666;opacity=70;perimeterSpacing=2;" vertex="1" parent="5gV6Mmuq19uFOGyt4GUH-14">
          <mxGeometry y="81.21" width="32" height="528.79" as="geometry" />
        </mxCell>
        <mxCell id="5gV6Mmuq19uFOGyt4GUH-136" value="Слой без названия" parent="0" />
        <mxCell id="5gV6Mmuq19uFOGyt4GUH-137" value="" style="strokeWidth=1;shadow=0;dashed=0;align=center;html=1;shape=mxgraph.mockup.graphics.rrect;rSize=0;strokeColor=#999999;fontStyle=1" vertex="1" parent="5gV6Mmuq19uFOGyt4GUH-136">
          <mxGeometry x="40" y="30" width="960" height="610" as="geometry" />
        </mxCell>
        <mxCell id="5gV6Mmuq19uFOGyt4GUH-138" value="&lt;b&gt;№&lt;/b&gt;" style="strokeColor=inherit;fillColor=inherit;gradientColor=inherit;strokeWidth=1;shadow=0;dashed=0;align=center;html=1;shape=mxgraph.mockup.graphics.rrect;rSize=0;fontColor=#666666;" vertex="1" parent="5gV6Mmuq19uFOGyt4GUH-137">
          <mxGeometry width="32" height="81.21028744326777" as="geometry" />
        </mxCell>
        <mxCell id="5gV6Mmuq19uFOGyt4GUH-139" value="&lt;b&gt;НАИМЕНОВАНИЕ&lt;/b&gt;" style="strokeColor=inherit;fillColor=inherit;gradientColor=inherit;strokeWidth=1;shadow=0;dashed=0;align=center;html=1;shape=mxgraph.mockup.graphics.rrect;rSize=0;fontColor=#666666;" vertex="1" parent="5gV6Mmuq19uFOGyt4GUH-137">
          <mxGeometry x="32" width="358" height="81.21028744326777" as="geometry" />
        </mxCell>
        <mxCell id="5gV6Mmuq19uFOGyt4GUH-140" value="" style="strokeColor=inherit;fillColor=inherit;gradientColor=inherit;strokeWidth=1;shadow=0;dashed=0;align=center;html=1;shape=mxgraph.mockup.graphics.rrect;rSize=0;fontColor=#666666;" vertex="1" parent="5gV6Mmuq19uFOGyt4GUH-137">
          <mxGeometry x="390" height="81.21028744326777" as="geometry" />
        </mxCell>
        <mxCell id="5gV6Mmuq19uFOGyt4GUH-141" value="" style="strokeColor=inherit;fillColor=inherit;gradientColor=inherit;strokeWidth=1;shadow=0;dashed=0;align=center;html=1;shape=mxgraph.mockup.graphics.rrect;rSize=0;fontColor=#666666;" vertex="1" parent="5gV6Mmuq19uFOGyt4GUH-137">
          <mxGeometry x="384" width="336" height="40.60514372163389" as="geometry" />
        </mxCell>
        <mxCell id="5gV6Mmuq19uFOGyt4GUH-142" value="&lt;b&gt;ГРАФИК РЕАЛИЗАЦИИ ПРОЕКТА&lt;/b&gt;" style="strokeColor=inherit;fillColor=inherit;gradientColor=inherit;strokeWidth=1;shadow=0;dashed=0;align=center;html=1;shape=mxgraph.mockup.graphics.rrect;rSize=0;fontColor=#666666;" vertex="1" parent="5gV6Mmuq19uFOGyt4GUH-137">
          <mxGeometry x="380" width="580" height="40.60514372163389" as="geometry" />
        </mxCell>
        <mxCell id="5gV6Mmuq19uFOGyt4GUH-143" value="1 месяц" style="strokeColor=inherit;fillColor=inherit;gradientColor=inherit;strokeWidth=1;shadow=0;dashed=0;align=center;html=1;shape=mxgraph.mockup.graphics.rrect;rSize=0;;fontColor=#666666;fontStyle=1" vertex="1" parent="5gV6Mmuq19uFOGyt4GUH-137">
          <mxGeometry x="380" y="40.60514372163389" width="100" height="40.60514372163389" as="geometry" />
        </mxCell>
        <mxCell id="5gV6Mmuq19uFOGyt4GUH-144" value="2 месяц" style="strokeColor=inherit;fillColor=inherit;gradientColor=inherit;strokeWidth=1;shadow=0;dashed=0;align=center;html=1;shape=mxgraph.mockup.graphics.rrect;rSize=0;fontColor=#666666;fontStyle=1" vertex="1" parent="5gV6Mmuq19uFOGyt4GUH-137">
          <mxGeometry x="480" y="40.60514372163389" width="100" height="40.60514372163389" as="geometry" />
        </mxCell>
        <mxCell id="5gV6Mmuq19uFOGyt4GUH-145" value="" style="strokeColor=inherit;fillColor=inherit;gradientColor=inherit;strokeWidth=1;shadow=0;dashed=0;align=center;html=1;shape=mxgraph.mockup.graphics.rrect;rSize=0;fontColor=#666666;" vertex="1" parent="5gV6Mmuq19uFOGyt4GUH-137">
          <mxGeometry x="580" y="40.60514372163389" width="10" height="40.60514372163389" as="geometry" />
        </mxCell>
        <mxCell id="5gV6Mmuq19uFOGyt4GUH-146" value="3 месяц" style="strokeColor=inherit;fillColor=inherit;gradientColor=inherit;strokeWidth=1;shadow=0;dashed=0;align=center;html=1;shape=mxgraph.mockup.graphics.rrect;rSize=0;fontColor=#666666;fontStyle=1" vertex="1" parent="5gV6Mmuq19uFOGyt4GUH-137">
          <mxGeometry x="576" y="40.60514372163389" width="104" height="40.60514372163389" as="geometry" />
        </mxCell>
        <mxCell id="5gV6Mmuq19uFOGyt4GUH-147" value="4 месяц" style="strokeColor=inherit;fillColor=inherit;gradientColor=inherit;strokeWidth=1;shadow=0;dashed=0;align=center;html=1;shape=mxgraph.mockup.graphics.rrect;rSize=0;fontColor=#666666;fontStyle=1" vertex="1" parent="5gV6Mmuq19uFOGyt4GUH-137">
          <mxGeometry x="672" y="40.60514372163389" width="98" height="40.60514372163389" as="geometry" />
        </mxCell>
        <mxCell id="5gV6Mmuq19uFOGyt4GUH-148" value="" style="strokeColor=inherit;fillColor=inherit;gradientColor=inherit;strokeWidth=1;shadow=0;dashed=0;align=center;html=1;shape=mxgraph.mockup.graphics.rrect;rSize=0;fontColor=#666666;" vertex="1" parent="5gV6Mmuq19uFOGyt4GUH-137">
          <mxGeometry x="770" y="40.60514372163389" height="40.60514372163389" as="geometry" />
        </mxCell>
        <mxCell id="5gV6Mmuq19uFOGyt4GUH-149" value="" style="edgeStyle=orthogonalEdgeStyle;rounded=0;orthogonalLoop=1;jettySize=auto;html=1;" edge="1" parent="5gV6Mmuq19uFOGyt4GUH-137" source="5gV6Mmuq19uFOGyt4GUH-150" target="5gV6Mmuq19uFOGyt4GUH-158">
          <mxGeometry relative="1" as="geometry" />
        </mxCell>
        <mxCell id="5gV6Mmuq19uFOGyt4GUH-150" value="5 месяц" style="strokeColor=inherit;fillColor=inherit;gradientColor=inherit;strokeWidth=1;shadow=0;dashed=0;align=center;html=1;shape=mxgraph.mockup.graphics.rrect;rSize=0;fontColor=#666666;fontStyle=1" vertex="1" parent="5gV6Mmuq19uFOGyt4GUH-137">
          <mxGeometry x="770" y="40.60514372163389" width="90" height="40.60514372163389" as="geometry" />
        </mxCell>
        <mxCell id="5gV6Mmuq19uFOGyt4GUH-151" value="" style="strokeColor=inherit;fillColor=inherit;gradientColor=inherit;strokeWidth=1;shadow=0;dashed=0;align=center;html=1;shape=mxgraph.mockup.graphics.rrect;rSize=0;fontColor=#666666;" vertex="1" parent="5gV6Mmuq19uFOGyt4GUH-137">
          <mxGeometry x="864" y="40.60514372163389" width="48" height="40.60514372163389" as="geometry" />
        </mxCell>
        <mxCell id="5gV6Mmuq19uFOGyt4GUH-152" value="6 месяц" style="strokeColor=inherit;fillColor=inherit;gradientColor=inherit;strokeWidth=1;shadow=0;dashed=0;align=center;html=1;shape=mxgraph.mockup.graphics.rrect;rSize=0;fontColor=#666666;fontStyle=1" vertex="1" parent="5gV6Mmuq19uFOGyt4GUH-137">
          <mxGeometry x="860" y="40.60514372163389" width="100" height="40.60514372163389" as="geometry" />
        </mxCell>
        <mxCell id="5gV6Mmuq19uFOGyt4GUH-153" value="" style="strokeColor=inherit;fillColor=inherit;gradientColor=inherit;strokeWidth=1;shadow=0;dashed=0;align=center;html=1;shape=mxgraph.mockup.graphics.rrect;rSize=0;fontColor=#666666;" vertex="1" parent="5gV6Mmuq19uFOGyt4GUH-137">
          <mxGeometry x="380" y="81.21028744326777" width="100" height="527.8668683812405" as="geometry" />
        </mxCell>
        <mxCell id="5gV6Mmuq19uFOGyt4GUH-154" value="" style="strokeColor=inherit;fillColor=inherit;gradientColor=inherit;strokeWidth=1;shadow=0;dashed=0;align=center;html=1;shape=mxgraph.mockup.graphics.rrect;rSize=0;fontColor=#666666;" vertex="1" parent="5gV6Mmuq19uFOGyt4GUH-137">
          <mxGeometry x="480" y="81.21028744326777" width="96" height="527.8668683812405" as="geometry" />
        </mxCell>
        <mxCell id="5gV6Mmuq19uFOGyt4GUH-155" value="" style="strokeColor=inherit;fillColor=inherit;gradientColor=inherit;strokeWidth=1;shadow=0;dashed=0;align=center;html=1;shape=mxgraph.mockup.graphics.rrect;rSize=0;fontColor=#666666;" vertex="1" parent="5gV6Mmuq19uFOGyt4GUH-137">
          <mxGeometry x="576" y="81.21028744326777" width="96" height="527.8668683812405" as="geometry" />
        </mxCell>
        <mxCell id="5gV6Mmuq19uFOGyt4GUH-156" value="" style="strokeColor=inherit;fillColor=inherit;gradientColor=inherit;strokeWidth=1;shadow=0;dashed=0;align=center;html=1;shape=mxgraph.mockup.graphics.rrect;rSize=0;fontColor=#666666;" vertex="1" parent="5gV6Mmuq19uFOGyt4GUH-137">
          <mxGeometry x="672" y="81.21028744326777" width="98" height="527.8668683812405" as="geometry" />
        </mxCell>
        <mxCell id="5gV6Mmuq19uFOGyt4GUH-157" value="" style="strokeColor=inherit;fillColor=inherit;gradientColor=inherit;strokeWidth=1;shadow=0;dashed=0;align=center;html=1;shape=mxgraph.mockup.graphics.rrect;rSize=0;fontColor=#666666;" vertex="1" parent="5gV6Mmuq19uFOGyt4GUH-137">
          <mxGeometry x="770" y="81.21028744326777" width="94" height="527.8668683812405" as="geometry" />
        </mxCell>
        <mxCell id="5gV6Mmuq19uFOGyt4GUH-158" value="" style="strokeColor=inherit;fillColor=inherit;gradientColor=inherit;strokeWidth=1;shadow=0;dashed=0;align=center;html=1;shape=mxgraph.mockup.graphics.rrect;rSize=0;fontColor=#666666;" vertex="1" parent="5gV6Mmuq19uFOGyt4GUH-137">
          <mxGeometry x="860" y="81.21028744326777" width="100" height="527.8668683812405" as="geometry" />
        </mxCell>
        <mxCell id="5gV6Mmuq19uFOGyt4GUH-159" value="1" style="strokeWidth=1;shadow=0;dashed=0;align=center;html=1;shape=mxgraph.mockup.graphics.anchor;fontColor=#666666;" vertex="1" parent="5gV6Mmuq19uFOGyt4GUH-137">
          <mxGeometry y="81.21028744326777" width="32" height="40.60514372163389" as="geometry" />
        </mxCell>
        <mxCell id="5gV6Mmuq19uFOGyt4GUH-160" value="Договор" style="strokeWidth=1;shadow=0;dashed=0;align=left;html=1;shape=mxgraph.mockup.graphics.anchor;fontColor=#666666;" vertex="1" parent="5gV6Mmuq19uFOGyt4GUH-137">
          <mxGeometry x="30" y="81.21028744326777" width="70" height="41.52798789712556" as="geometry" />
        </mxCell>
        <mxCell id="5gV6Mmuq19uFOGyt4GUH-161" value="2" style="strokeWidth=1;shadow=0;dashed=0;align=center;html=1;shape=mxgraph.mockup.graphics.anchor;fontColor=#666666;" vertex="1" parent="5gV6Mmuq19uFOGyt4GUH-137">
          <mxGeometry y="109.99543116490165" width="32" height="40.60514372163389" as="geometry" />
        </mxCell>
        <mxCell id="5gV6Mmuq19uFOGyt4GUH-162" value="Концепцтуальные решения" style="strokeWidth=1;shadow=0;dashed=0;align=left;html=1;shape=mxgraph.mockup.graphics.anchor;fontColor=#666666;" vertex="1" parent="5gV6Mmuq19uFOGyt4GUH-137">
          <mxGeometry x="30" y="110" width="180" height="41.52798789712556" as="geometry" />
        </mxCell>
        <mxCell id="5gV6Mmuq19uFOGyt4GUH-163" value="" style="strokeWidth=1;shadow=0;dashed=0;align=center;html=1;shape=mxgraph.mockup.graphics.anchor;fontColor=#666666;" vertex="1" parent="5gV6Mmuq19uFOGyt4GUH-137">
          <mxGeometry x="96" y="121.81543116490165" width="208" height="40.60514372163389" as="geometry" />
        </mxCell>
        <mxCell id="5gV6Mmuq19uFOGyt4GUH-164" value="3" style="strokeWidth=1;shadow=0;dashed=0;align=center;html=1;shape=mxgraph.mockup.graphics.anchor;fontColor=#666666;" vertex="1" parent="5gV6Mmuq19uFOGyt4GUH-137">
          <mxGeometry y="138.46057488653554" width="32" height="40.60514372163389" as="geometry" />
        </mxCell>
        <mxCell id="5gV6Mmuq19uFOGyt4GUH-165" value="Эскиз функциональных зон" style="strokeWidth=1;shadow=0;dashed=0;align=left;html=1;shape=mxgraph.mockup.graphics.anchor;fontColor=#666666;" vertex="1" parent="5gV6Mmuq19uFOGyt4GUH-137">
          <mxGeometry x="30" y="138" width="180" height="41.52798789712556" as="geometry" />
        </mxCell>
        <mxCell id="5gV6Mmuq19uFOGyt4GUH-166" value="" style="strokeWidth=1;shadow=0;dashed=0;align=center;html=1;shape=mxgraph.mockup.graphics.anchor;fontColor=#666666;" vertex="1" parent="5gV6Mmuq19uFOGyt4GUH-137">
          <mxGeometry x="96" y="162.42057488653555" width="208" height="40.60514372163389" as="geometry" />
        </mxCell>
        <mxCell id="5gV6Mmuq19uFOGyt4GUH-167" value="4" style="strokeWidth=1;shadow=0;dashed=0;align=center;html=1;shape=mxgraph.mockup.graphics.anchor;fontColor=#666666;" vertex="1" parent="5gV6Mmuq19uFOGyt4GUH-137">
          <mxGeometry y="166.92571860816943" width="32" height="40.60514372163389" as="geometry" />
        </mxCell>
        <mxCell id="5gV6Mmuq19uFOGyt4GUH-168" value="Подбор и расстановка оборудования" style="strokeWidth=1;shadow=0;dashed=0;align=left;html=1;shape=mxgraph.mockup.graphics.anchor;fontColor=#666666;" vertex="1" parent="5gV6Mmuq19uFOGyt4GUH-137">
          <mxGeometry x="30" y="166" width="230" height="41.52798789712556" as="geometry" />
        </mxCell>
        <mxCell id="5gV6Mmuq19uFOGyt4GUH-170" value="Дизайн проект" style="strokeWidth=1;shadow=0;dashed=0;align=left;html=1;shape=mxgraph.mockup.graphics.anchor;fontColor=#666666;" vertex="1" parent="5gV6Mmuq19uFOGyt4GUH-137">
          <mxGeometry x="30" y="195" width="100" height="41.52798789712556" as="geometry" />
        </mxCell>
        <mxCell id="5gV6Mmuq19uFOGyt4GUH-171" value="Заказ оборудования" style="strokeWidth=1;shadow=0;dashed=0;align=left;html=1;shape=mxgraph.mockup.graphics.anchor;fontColor=#666666;" vertex="1" parent="5gV6Mmuq19uFOGyt4GUH-137">
          <mxGeometry x="30" y="223" width="140" height="41.52798789712556" as="geometry" />
        </mxCell>
        <mxCell id="5gV6Mmuq19uFOGyt4GUH-172" value="Проектные работы" style="strokeWidth=1;shadow=0;dashed=0;align=left;html=1;shape=mxgraph.mockup.graphics.anchor;fontColor=#666666;" vertex="1" parent="5gV6Mmuq19uFOGyt4GUH-137">
          <mxGeometry x="30" y="251" width="130" height="41.52798789712556" as="geometry" />
        </mxCell>
        <mxCell id="5gV6Mmuq19uFOGyt4GUH-173" value="Ремонтные работы и монтаж инженерных сетей" style="strokeWidth=1;shadow=0;dashed=0;align=left;html=1;shape=mxgraph.mockup.graphics.anchor;fontColor=#666666;" vertex="1" parent="5gV6Mmuq19uFOGyt4GUH-137">
          <mxGeometry x="30" y="280" width="290" height="41.52798789712556" as="geometry" />
        </mxCell>
        <mxCell id="5gV6Mmuq19uFOGyt4GUH-174" value="Поставка и монтаж оборудования" style="strokeWidth=1;shadow=0;dashed=0;align=left;html=1;shape=mxgraph.mockup.graphics.anchor;fontColor=#666666;" vertex="1" parent="5gV6Mmuq19uFOGyt4GUH-137">
          <mxGeometry x="30" y="308" width="210" height="41.52798789712556" as="geometry" />
        </mxCell>
        <mxCell id="5gV6Mmuq19uFOGyt4GUH-175" value="Заупка ИТ оборудования" style="strokeWidth=1;shadow=0;dashed=0;align=left;html=1;shape=mxgraph.mockup.graphics.anchor;fontColor=#666666;" vertex="1" parent="5gV6Mmuq19uFOGyt4GUH-137">
          <mxGeometry x="30" y="336" width="160" height="41.52798789712556" as="geometry" />
        </mxCell>
        <mxCell id="5gV6Mmuq19uFOGyt4GUH-176" value="Монтаж ИТ оборудования" style="strokeWidth=1;shadow=0;dashed=0;align=left;html=1;shape=mxgraph.mockup.graphics.anchor;fontColor=#666666;" vertex="1" parent="5gV6Mmuq19uFOGyt4GUH-137">
          <mxGeometry x="30" y="365" width="170" height="41.52798789712556" as="geometry" />
        </mxCell>
        <mxCell id="5gV6Mmuq19uFOGyt4GUH-177" value="Заказ и монтаж мебели" style="strokeWidth=1;shadow=0;dashed=0;align=left;html=1;shape=mxgraph.mockup.graphics.anchor;fontColor=#666666;" vertex="1" parent="5gV6Mmuq19uFOGyt4GUH-137">
          <mxGeometry x="30" y="394" width="64" height="40.60514372163389" as="geometry" />
        </mxCell>
        <mxCell id="5gV6Mmuq19uFOGyt4GUH-178" value="Рекламная вывеска и поверхности" style="strokeWidth=1;shadow=0;dashed=0;align=left;html=1;shape=mxgraph.mockup.graphics.anchor;fontColor=#666666;" vertex="1" parent="5gV6Mmuq19uFOGyt4GUH-137">
          <mxGeometry x="30" y="421" width="220" height="41.52798789712556" as="geometry" />
        </mxCell>
        <mxCell id="5gV6Mmuq19uFOGyt4GUH-179" value="Подготовка клуба к открытию" style="strokeWidth=1;shadow=0;dashed=0;align=left;html=1;shape=mxgraph.mockup.graphics.anchor;fontColor=#666666;" vertex="1" parent="5gV6Mmuq19uFOGyt4GUH-137">
          <mxGeometry x="30" y="542" width="64" height="28.04597701149425" as="geometry" />
        </mxCell>
        <mxCell id="5gV6Mmuq19uFOGyt4GUH-180" value="Подготовка пакета документов для работы Клуба" style="strokeWidth=1;shadow=0;dashed=0;align=left;html=1;shape=mxgraph.mockup.graphics.anchor;fontColor=#666666;" vertex="1" parent="5gV6Mmuq19uFOGyt4GUH-137">
          <mxGeometry x="30" y="457" width="64" height="28.04597701149425" as="geometry" />
        </mxCell>
        <mxCell id="5gV6Mmuq19uFOGyt4GUH-181" value="Подбор&amp;nbsp; и обучение персноала" style="strokeWidth=1;shadow=0;dashed=0;align=left;html=1;shape=mxgraph.mockup.graphics.anchor;fontColor=#666666;" vertex="1" parent="5gV6Mmuq19uFOGyt4GUH-137">
          <mxGeometry x="30" y="485" width="64" height="28.04597701149425" as="geometry" />
        </mxCell>
        <mxCell id="5gV6Mmuq19uFOGyt4GUH-182" value="Маркетинговые мероприятия" style="strokeWidth=1;shadow=0;dashed=0;align=left;html=1;shape=mxgraph.mockup.graphics.anchor;fontColor=#666666;" vertex="1" parent="5gV6Mmuq19uFOGyt4GUH-137">
          <mxGeometry x="30" y="513" width="64" height="28.04597701149425" as="geometry" />
        </mxCell>
        <mxCell id="5gV6Mmuq19uFOGyt4GUH-183" value="Открытие Клуба" style="strokeWidth=1;shadow=0;dashed=0;align=left;html=1;shape=mxgraph.mockup.graphics.anchor;fontColor=#666666;" vertex="1" parent="5gV6Mmuq19uFOGyt4GUH-137">
          <mxGeometry x="30" y="570" width="64" height="28.04597701149425" as="geometry" />
        </mxCell>
        <mxCell id="5gV6Mmuq19uFOGyt4GUH-184" value="5" style="strokeWidth=1;shadow=0;dashed=0;align=center;html=1;shape=mxgraph.mockup.graphics.anchor;fontColor=#666666;" vertex="1" parent="5gV6Mmuq19uFOGyt4GUH-137">
          <mxGeometry y="195" width="32" height="40.60514372163389" as="geometry" />
        </mxCell>
        <mxCell id="5gV6Mmuq19uFOGyt4GUH-185" value="6" style="strokeWidth=1;shadow=0;dashed=0;align=center;html=1;shape=mxgraph.mockup.graphics.anchor;fontColor=#666666;" vertex="1" parent="5gV6Mmuq19uFOGyt4GUH-137">
          <mxGeometry y="223.92" width="32" height="40.60514372163389" as="geometry" />
        </mxCell>
        <mxCell id="5gV6Mmuq19uFOGyt4GUH-186" value="7" style="strokeWidth=1;shadow=0;dashed=0;align=center;html=1;shape=mxgraph.mockup.graphics.anchor;fontColor=#666666;" vertex="1" parent="5gV6Mmuq19uFOGyt4GUH-137">
          <mxGeometry y="251.45999999999998" width="32" height="40.60514372163389" as="geometry" />
        </mxCell>
        <mxCell id="5gV6Mmuq19uFOGyt4GUH-187" value="8" style="strokeWidth=1;shadow=0;dashed=0;align=center;html=1;shape=mxgraph.mockup.graphics.anchor;fontColor=#666666;" vertex="1" parent="5gV6Mmuq19uFOGyt4GUH-137">
          <mxGeometry y="280" width="32" height="40.60514372163389" as="geometry" />
        </mxCell>
        <mxCell id="5gV6Mmuq19uFOGyt4GUH-188" value="9" style="strokeWidth=1;shadow=0;dashed=0;align=center;html=1;shape=mxgraph.mockup.graphics.anchor;fontColor=#666666;" vertex="1" parent="5gV6Mmuq19uFOGyt4GUH-137">
          <mxGeometry y="308.92" width="32" height="40.60514372163389" as="geometry" />
        </mxCell>
        <mxCell id="5gV6Mmuq19uFOGyt4GUH-189" value="10" style="strokeWidth=1;shadow=0;dashed=0;align=center;html=1;shape=mxgraph.mockup.graphics.anchor;fontColor=#666666;" vertex="1" parent="5gV6Mmuq19uFOGyt4GUH-137">
          <mxGeometry y="336.92" width="32" height="40.60514372163389" as="geometry" />
        </mxCell>
        <mxCell id="5gV6Mmuq19uFOGyt4GUH-190" value="11" style="strokeWidth=1;shadow=0;dashed=0;align=center;html=1;shape=mxgraph.mockup.graphics.anchor;fontColor=#666666;" vertex="1" parent="5gV6Mmuq19uFOGyt4GUH-137">
          <mxGeometry y="365" width="32" height="40.60514372163389" as="geometry" />
        </mxCell>
        <mxCell id="5gV6Mmuq19uFOGyt4GUH-191" value="12" style="strokeWidth=1;shadow=0;dashed=0;align=center;html=1;shape=mxgraph.mockup.graphics.anchor;fontColor=#666666;" vertex="1" parent="5gV6Mmuq19uFOGyt4GUH-137">
          <mxGeometry y="394" width="32" height="40.60514372163389" as="geometry" />
        </mxCell>
        <mxCell id="5gV6Mmuq19uFOGyt4GUH-192" value="13" style="strokeWidth=1;shadow=0;dashed=0;align=center;html=1;shape=mxgraph.mockup.graphics.anchor;fontColor=#666666;" vertex="1" parent="5gV6Mmuq19uFOGyt4GUH-137">
          <mxGeometry y="421" width="32" height="40.60514372163389" as="geometry" />
        </mxCell>
        <mxCell id="5gV6Mmuq19uFOGyt4GUH-193" value="14" style="strokeWidth=1;shadow=0;dashed=0;align=center;html=1;shape=mxgraph.mockup.graphics.anchor;fontColor=#666666;" vertex="1" parent="5gV6Mmuq19uFOGyt4GUH-137">
          <mxGeometry y="450.72" width="32" height="40.60514372163389" as="geometry" />
        </mxCell>
        <mxCell id="5gV6Mmuq19uFOGyt4GUH-194" value="15" style="strokeWidth=1;shadow=0;dashed=0;align=center;html=1;shape=mxgraph.mockup.graphics.anchor;fontColor=#666666;" vertex="1" parent="5gV6Mmuq19uFOGyt4GUH-137">
          <mxGeometry y="478.72" width="32" height="40.60514372163389" as="geometry" />
        </mxCell>
        <mxCell id="5gV6Mmuq19uFOGyt4GUH-195" value="16" style="strokeWidth=1;shadow=0;dashed=0;align=center;html=1;shape=mxgraph.mockup.graphics.anchor;fontColor=#666666;" vertex="1" parent="5gV6Mmuq19uFOGyt4GUH-137">
          <mxGeometry y="506.72" width="32" height="40.60514372163389" as="geometry" />
        </mxCell>
        <mxCell id="5gV6Mmuq19uFOGyt4GUH-196" value="17" style="strokeWidth=1;shadow=0;dashed=0;align=center;html=1;shape=mxgraph.mockup.graphics.anchor;fontColor=#666666;" vertex="1" parent="5gV6Mmuq19uFOGyt4GUH-137">
          <mxGeometry y="535.72" width="32" height="40.60514372163389" as="geometry" />
        </mxCell>
        <mxCell id="5gV6Mmuq19uFOGyt4GUH-197" value="18" style="strokeWidth=1;shadow=0;dashed=0;align=center;html=1;shape=mxgraph.mockup.graphics.anchor;fontColor=#666666;" vertex="1" parent="5gV6Mmuq19uFOGyt4GUH-137">
          <mxGeometry y="563.72" width="32" height="40.60514372163389" as="geometry" />
        </mxCell>
        <mxCell id="5gV6Mmuq19uFOGyt4GUH-261" value="" style="strokeWidth=1;shadow=0;dashed=0;align=center;html=1;shape=mxgraph.mockup.graphics.rrect;rSize=0;strokeColor=none;fillColor=#999999;" vertex="1" parent="5gV6Mmuq19uFOGyt4GUH-137">
          <mxGeometry x="380" y="121.82" width="100" height="12.3" as="geometry" />
        </mxCell>
        <mxCell id="5gV6Mmuq19uFOGyt4GUH-262" value="" style="strokeWidth=1;shadow=0;dashed=0;align=center;html=1;shape=mxgraph.mockup.graphics.rrect;rSize=0;strokeColor=none;fillColor=#999999;" vertex="1" parent="5gV6Mmuq19uFOGyt4GUH-137">
          <mxGeometry x="380" y="150.12" width="100" height="12.3" as="geometry" />
        </mxCell>
        <mxCell id="5gV6Mmuq19uFOGyt4GUH-263" value="" style="strokeWidth=1;shadow=0;dashed=0;align=center;html=1;shape=mxgraph.mockup.graphics.rrect;rSize=0;strokeColor=none;fillColor=#999999;" vertex="1" parent="5gV6Mmuq19uFOGyt4GUH-137">
          <mxGeometry x="440" y="181.08" width="138" height="12.3" as="geometry" />
        </mxCell>
        <mxCell id="5gV6Mmuq19uFOGyt4GUH-264" value="" style="strokeWidth=1;shadow=0;dashed=0;align=center;html=1;shape=mxgraph.mockup.graphics.rrect;rSize=0;strokeColor=none;fillColor=#999999;" vertex="1" parent="5gV6Mmuq19uFOGyt4GUH-137">
          <mxGeometry x="380" y="211.62" width="200" height="12.3" as="geometry" />
        </mxCell>
        <mxCell id="5gV6Mmuq19uFOGyt4GUH-265" value="" style="strokeWidth=1;shadow=0;dashed=0;align=center;html=1;shape=mxgraph.mockup.graphics.rrect;rSize=0;strokeColor=none;fillColor=#999999;" vertex="1" parent="5gV6Mmuq19uFOGyt4GUH-137">
          <mxGeometry x="478" y="240" width="62" height="12.3" as="geometry" />
        </mxCell>
        <mxCell id="5gV6Mmuq19uFOGyt4GUH-266" value="" style="strokeWidth=1;shadow=0;dashed=0;align=center;html=1;shape=mxgraph.mockup.graphics.rrect;rSize=0;strokeColor=none;fillColor=#999999;" vertex="1" parent="5gV6Mmuq19uFOGyt4GUH-137">
          <mxGeometry x="480" y="270" width="190" height="12.3" as="geometry" />
        </mxCell>
        <mxCell id="5gV6Mmuq19uFOGyt4GUH-267" value="" style="strokeWidth=1;shadow=0;dashed=0;align=center;html=1;shape=mxgraph.mockup.graphics.rrect;rSize=0;strokeColor=none;fillColor=#999999;" vertex="1" parent="5gV6Mmuq19uFOGyt4GUH-137">
          <mxGeometry x="570" y="298.85" width="290" height="12.3" as="geometry" />
        </mxCell>
        <mxCell id="5gV6Mmuq19uFOGyt4GUH-268" value="" style="strokeWidth=1;shadow=0;dashed=0;align=center;html=1;shape=mxgraph.mockup.graphics.rrect;rSize=0;strokeColor=none;fillColor=#999999;" vertex="1" parent="5gV6Mmuq19uFOGyt4GUH-137">
          <mxGeometry x="530" y="330" width="380" height="12.3" as="geometry" />
        </mxCell>
        <mxCell id="5gV6Mmuq19uFOGyt4GUH-269" value="" style="strokeWidth=1;shadow=0;dashed=0;align=center;html=1;shape=mxgraph.mockup.graphics.rrect;rSize=0;strokeColor=none;fillColor=#999999;" vertex="1" parent="5gV6Mmuq19uFOGyt4GUH-137">
          <mxGeometry x="516" y="360" width="62" height="12.3" as="geometry" />
        </mxCell>
        <mxCell id="5gV6Mmuq19uFOGyt4GUH-270" value="" style="strokeWidth=1;shadow=0;dashed=0;align=center;html=1;shape=mxgraph.mockup.graphics.rrect;rSize=0;strokeColor=none;fillColor=#999999;" vertex="1" parent="5gV6Mmuq19uFOGyt4GUH-137">
          <mxGeometry x="860" y="384" width="92" height="12.3" as="geometry" />
        </mxCell>
        <mxCell id="5gV6Mmuq19uFOGyt4GUH-271" value="" style="strokeWidth=1;shadow=0;dashed=0;align=center;html=1;shape=mxgraph.mockup.graphics.rrect;rSize=0;strokeColor=none;fillColor=#999999;" vertex="1" parent="5gV6Mmuq19uFOGyt4GUH-137">
          <mxGeometry x="770" y="408.7" width="190" height="12.3" as="geometry" />
        </mxCell>
        <mxCell id="5gV6Mmuq19uFOGyt4GUH-272" value="" style="strokeWidth=1;shadow=0;dashed=0;align=center;html=1;shape=mxgraph.mockup.graphics.rrect;rSize=0;strokeColor=none;fillColor=#999999;" vertex="1" parent="5gV6Mmuq19uFOGyt4GUH-137">
          <mxGeometry x="672" y="435.61" width="288" height="12.3" as="geometry" />
        </mxCell>
        <mxCell id="5gV6Mmuq19uFOGyt4GUH-345" value="" style="strokeWidth=1;shadow=0;dashed=0;align=center;html=1;shape=mxgraph.mockup.graphics.rrect;rSize=0;strokeColor=none;fillColor=#999999;" vertex="1" parent="5gV6Mmuq19uFOGyt4GUH-137">
          <mxGeometry x="580" y="464.87" width="94" height="12.3" as="geometry" />
        </mxCell>
        <mxCell id="5gV6Mmuq19uFOGyt4GUH-346" value="" style="strokeWidth=1;shadow=0;dashed=0;align=center;html=1;shape=mxgraph.mockup.graphics.rrect;rSize=0;strokeColor=none;fillColor=#999999;" vertex="1" parent="5gV6Mmuq19uFOGyt4GUH-137">
          <mxGeometry x="860" y="464.87" width="98" height="12.3" as="geometry" />
        </mxCell>
        <mxCell id="5gV6Mmuq19uFOGyt4GUH-347" value="" style="strokeWidth=1;shadow=0;dashed=0;align=center;html=1;shape=mxgraph.mockup.graphics.rrect;rSize=0;strokeColor=none;fillColor=#999999;" vertex="1" parent="5gV6Mmuq19uFOGyt4GUH-137">
          <mxGeometry x="672" y="492.87" width="290" height="12.3" as="geometry" />
        </mxCell>
        <mxCell id="5gV6Mmuq19uFOGyt4GUH-348" value="" style="strokeWidth=1;shadow=0;dashed=0;align=center;html=1;shape=mxgraph.mockup.graphics.rrect;rSize=0;strokeColor=none;fillColor=#999999;" vertex="1" parent="5gV6Mmuq19uFOGyt4GUH-137">
          <mxGeometry x="580" y="520.87" width="378" height="12.3" as="geometry" />
        </mxCell>
        <mxCell id="5gV6Mmuq19uFOGyt4GUH-349" value="" style="strokeWidth=1;shadow=0;dashed=0;align=center;html=1;shape=mxgraph.mockup.graphics.rrect;rSize=0;strokeColor=none;fillColor=#999999;" vertex="1" parent="5gV6Mmuq19uFOGyt4GUH-137">
          <mxGeometry x="860" y="549.87" width="94" height="12.3" as="geometry" />
        </mxCell>
        <mxCell id="5gV6Mmuq19uFOGyt4GUH-350" value="" style="strokeWidth=1;shadow=0;dashed=0;align=center;html=1;shape=mxgraph.mockup.graphics.rrect;rSize=0;strokeColor=none;fillColor=#000000;" vertex="1" parent="5gV6Mmuq19uFOGyt4GUH-137">
          <mxGeometry x="950" y="577.87" width="10" height="12.3" as="geometry" />
        </mxCell>
        <mxCell id="5gV6Mmuq19uFOGyt4GUH-429" value="" style="strokeWidth=1;shadow=0;dashed=0;align=center;html=1;shape=mxgraph.mockup.graphics.rrect;rSize=0;strokeColor=none;fillColor=#000000;" vertex="1" parent="5gV6Mmuq19uFOGyt4GUH-137">
          <mxGeometry x="380" y="95.36" width="10" height="12.3" as="geometry" />
        </mxCell>
      </root>
    </mxGraphModel>
  </diagram>
</mxfile>
